# xmcd
#
# Track frame offsets:
#	150
#	12548
#	26722
#	45939
#	62797
#	85527
#	105279
#	123460
#	136941
#	152999
#	169758
#	181611
#
# Disc length: 2636 seconds
#
# Revision: 0
# Processed by: cddbd v1.5.1PL0 Copyright (c) Steve Scherf et al.
# Submitted via: EasyCDDAExtractor 7.5.0.1
#
DISCID=8c0a4a0c
DTITLE=La oreja de VanGohg - Dile al sol
DYEAR=1900
DGENRE=Blues
TTITLE0=El 28
TTITLE1=Cuentame al oido
TTITLE2=pesadilla 
TTITLE3=la estrella y la luna
TTITLE4=Viejo cuento
TTITLE5=dos cristales
TTITLE6=lloran las piedras
TTITLE7=Que puedo pedir
TTITLE8=dile al sol
TTITLE9=El libro
TTITLE10=La carta
TTITLE11=Soñare
EXTD=
EXTT0=
EXTT1=
EXTT2=
EXTT3=
EXTT4=
EXTT5=
EXTT6=
EXTT7=
EXTT8=
EXTT9=
EXTT10=
EXTT11=
PLAYORDER=
